<svg xmlns="http://www.w3.org/2000/svg" xmlns:xlink="http://www.w3.org/1999/xlink" viewBox="0 0 16 16"><defs><linearGradient id="linear-gradient" x1="8" y1="15" x2="8" y2="1" gradientUnits="userSpaceOnUse"><stop offset="0.04" stop-color="#1a1a1a"/><stop offset="1" stop-color="#4d4e4e"/></linearGradient></defs><g id="Icons"><g id="zoomFitColor_16"><path d="M0,1V15H16V1ZM15,14H1V2H15Z" fill="url(#linear-gradient)"/><polygon points="3 4.5 5.5 7 6 6.5 3.5 4 6 3.99 6 3 2 3 2 7 3 7 3 4.5" fill="#0d72b9"/><polygon points="10.5 7 13 4.5 13 7 14 7 14 3 10 3 10 3.99 12.5 4 10 6.5 10.5 7" fill="#0d72b9"/><polygon points="5.5 9 3 11.5 3 9.03 2 9 2 13 6 13 6 12 3.5 12 6 9.5 5.5 9" fill="#0d72b9"/><polygon points="10 12 10 13 14 13 14 9 13 9 13 11.5 10.5 9 10 9.5 12.5 12 10 12" fill="#0d72b9"/><rect width="16" height="16" fill="none"/></g></g></svg>