<svg xmlns="http://www.w3.org/2000/svg" xmlns:xlink="http://www.w3.org/1999/xlink" viewBox="0 0 16 16"><defs><radialGradient id="radial-gradient" cx="8.73" cy="9.15" r="6.97" gradientTransform="translate(11.04 -2.84) rotate(56.52) scale(1 0.93)" gradientUnits="userSpaceOnUse"><stop offset="0.51" stop-color="#d6e0e7"/><stop offset="0.77" stop-color="#fff"/></radialGradient><linearGradient id="linear-gradient" x1="7.48" y1="2" x2="7.48" y2="12.96" gradientUnits="userSpaceOnUse"><stop offset="0.01" stop-color="#5e99c5"/><stop offset="0.85" stop-color="#17406e"/></linearGradient><radialGradient id="radial-gradient-2" cx="9.11" cy="9.28" r="3" gradientUnits="userSpaceOnUse"><stop offset="0.01" stop-color="#fff"/><stop offset="0.39" stop-color="#fff"/><stop offset="0.63" stop-color="#fff"/></radialGradient></defs><g id="Icons"><g id="zoomInColor_16"><path d="M14.25,15a.74.74,0,0,1-.53-.22L6.48,7.54A.75.75,0,1,1,7.54,6.48l7.24,7.24a.75.75,0,0,1,0,1.06.74.74,0,0,1-.53.22Z" fill="#5c3d1e"/><path d="M3,7.48A4.48,4.48,0,1,0,7.48,3,4.47,4.47,0,0,0,3,7.48Z" fill="url(#radial-gradient)"/><path d="M7.48,3.1A4.39,4.39,0,1,1,3.1,7.48,4.38,4.38,0,0,1,7.48,3.1m0-1.1A5.48,5.48,0,1,0,13,7.48,5.49,5.49,0,0,0,7.48,2Z" fill="url(#linear-gradient)"/><path d="M7.54,11.33A3.6,3.6,0,0,0,11.18,8h-.7c-1.8,0-2.9.84-2.9,2.54Z" fill="url(#radial-gradient-2)"/><polygon points="8 10 7 10 7 5 8 5 8 10 8 10"/><polygon points="10 8 5 8 5 7 10 7 10 8 10 8"/><rect width="16" height="16" fill="none"/></g></g></svg>